HIERARCHY
ROOT SpineBase
{
  OFFSET 0.000000 0.000000 0.000000
  CHANNELS 6 Xposition Yposition Zposition Zrotation Xrotation Yrotation
  JOINT SpineMid
  {
    OFFSET 0.000000 31.327971 0.000000
    CHANNELS 3 Zrotation Xrotation Yrotation
    JOINT SpineShoulder
    {
      OFFSET -0.100886 23.258559 -0.954804
      CHANNELS 3 Zrotation Xrotation Yrotation
      JOINT Neck
      {
        OFFSET -0.093280 7.697507 -0.688778
        CHANNELS 3 Zrotation Xrotation Yrotation
        JOINT Head
        {
          OFFSET -4.972428 10.704832 3.252256
          CHANNELS 3 Zrotation Xrotation Yrotation
          End Site
          {
            OFFSET 0 0 0
          }
        }
      }
      JOINT ShoulderLeft
      {
        OFFSET -10.496605 -4.982638 15.193112
        CHANNELS 3 Zrotation Xrotation Yrotation
        JOINT ElbowLeft
        {
          OFFSET -3.902766 -29.043171 7.221230
          CHANNELS 3 Zrotation Xrotation Yrotation
          JOINT WristLeft
          {
            OFFSET -15.627082 -9.447039 -26.014193
            CHANNELS 3 Zrotation Xrotation Yrotation
            JOINT HandLeft
            {
              OFFSET -7.888317 0.876163 -8.224198
              CHANNELS 3 Zrotation Xrotation Yrotation
              JOINT HandTipLeft
              {
                OFFSET -2.524466 -0.121972 -2.061742
                CHANNELS 3 Zrotation Xrotation Yrotation
                End Site
                {
                  OFFSET 0 0 0
                }
              }
              JOINT ThumbLeft
              {
                OFFSET 3.975082 5.498758 -6.560558
                CHANNELS 3 Zrotation Xrotation Yrotation
                End Site
                {
                  OFFSET 0 0 0
                }
              }
            }
          }
        }
      }
      JOINT ShoulderRight
      {
        OFFSET 7.276887 -2.490166 -14.486675
        CHANNELS 3 Zrotation Xrotation Yrotation
        JOINT ElbowRight
        {
          OFFSET -0.301905 -22.730120 -7.615707
          CHANNELS 3 Zrotation Xrotation Yrotation
          JOINT WristRight
          {
            OFFSET -22.216516 -9.741628 3.306762
            CHANNELS 3 Zrotation Xrotation Yrotation
            JOINT HandRight
            {
              OFFSET -7.786915 -1.114458 1.682875
              CHANNELS 3 Zrotation Xrotation Yrotation
              JOINT HandTipRight
              {
                OFFSET -7.228718 -1.596547 1.093831
                CHANNELS 3 Zrotation Xrotation Yrotation
                End Site
                {
                  OFFSET 0 0 0
                }
              }
              JOINT ThumbRight
              {
                OFFSET -1.125693 2.762708 0.409423
                CHANNELS 3 Zrotation Xrotation Yrotation
                End Site
                {
                  OFFSET 0 0 0
                }
              }
            }
          }
        }
      }
    }
  }
  JOINT HipLeft
  {
    OFFSET -3.468430 -0.040347 1.532276
    CHANNELS 3 Zrotation Xrotation Yrotation
    JOINT KneeLeft
    {
      OFFSET -1.084989 -33.782571 2.522322
      CHANNELS 3 Zrotation Xrotation Yrotation
      JOINT AnkleLeft
      {
        OFFSET 9.081875 -33.613066 2.135299
        CHANNELS 3 Zrotation Xrotation Yrotation
        JOINT FootLeft
        {
          OFFSET -9.680147 -3.282822 -9.208168
          CHANNELS 3 Zrotation Xrotation Yrotation
          End Site
          {
            OFFSET 0 0 0
          }
        }
      }
    }
  }
  JOINT HipRight
  {
    OFFSET 1.949686 2.476513 -9.303438
    CHANNELS 3 Zrotation Xrotation Yrotation
    JOINT KneeRight
    {
      OFFSET 9.740544 -33.661196 -6.316563
      CHANNELS 3 Zrotation Xrotation Yrotation
      JOINT AnkleRight
      {
        OFFSET 10.745112 -34.748573 -0.450099
        CHANNELS 3 Zrotation Xrotation Yrotation
        JOINT FootRight
        {
          OFFSET -9.914198 -3.217765 -9.117901
          CHANNELS 3 Zrotation Xrotation Yrotation
          End Site
          {
            OFFSET 0 0 0
          }
        }
      }
    }
  }
}
MOTION
Frames: 6
Frame Time: 0.033333
62.570090 71.514059 319.541944 -0.022177 1.029838 62.073663 0.214908 0.098132 -62.068322 0.002323 0.098459 0.010895 2.294708 0.231608 0.051863 0.000000 0.000000 0.000000 0.008954 -2.610906 0.152192 38.027001 -48.112588 6.998212 19.822605 6.236950 7.708187 -0.704781 -3.289901 -16.962824 0.000000 0.000000 0.000000 0.000000 0.000000 0.000000 9.261637 1.460334 -3.146690 -18.806910 2.407474 -11.950815 -8.879056 -4.968060 -11.190882 10.685850 4.076929 10.998437 0.000000 0.000000 0.000000 0.000000 0.000000 0.000000 -0.133759 0.503758 -62.153889 -0.260914 -0.836718 0.101906 0.739698 0.140461 -1.203377 0.000000 0.000000 0.000000 -1.351507 0.748782 -61.774508 0.469117 -0.266581 -0.316225 0.801040 0.510924 -1.179320 0.000000 0.000000 0.000000
62.900889 71.555601 319.508667 0.141499 1.135463 61.952960 0.192272 0.081158 -61.942157 -0.005193 0.082138 0.018599 2.275802 0.540643 0.158119 0.000000 0.000000 0.000000 -0.155848 -1.425367 -0.033121 39.875491 -49.260063 9.830724 18.281526 6.866497 6.410584 3.012934 -6.010832 -15.078590 0.000000 0.000000 0.000000 0.000000 0.000000 0.000000 9.365637 1.866245 -3.283220 -18.571320 2.112030 -12.304531 -7.894514 -5.625848 -8.672376 9.993771 3.580176 10.315074 0.000000 0.000000 0.000000 0.000000 0.000000 0.000000 -0.359306 0.830110 -62.056414 -0.082959 -0.904488 0.116687 0.814621 0.147590 -1.260876 0.000000 0.000000 0.000000 -1.621749 1.009525 -61.618626 0.485894 -0.240694 -0.343028 0.999451 0.494011 -1.249354 0.000000 0.000000 0.000000
63.226213 71.602823 319.433381 0.254959 1.250532 61.866231 0.169668 0.066504 -61.851721 -0.011873 0.067364 0.024006 2.142917 0.764305 0.285659 0.000000 0.000000 0.000000 0.312404 -0.579287 -0.014895 40.742224 -50.217593 12.038374 16.590952 8.478578 5.932189 4.809175 -6.992144 -13.733122 0.000000 0.000000 0.000000 0.000000 0.000000 0.000000 9.351246 2.071340 -3.339622 -18.504434 1.939179 -12.540912 -6.385026 -5.838387 -6.699173 8.381852 2.996830 9.065337 0.000000 0.000000 0.000000 0.000000 0.000000 0.000000 -0.696819 1.082294 -61.989838 0.077644 -0.825003 0.133872 0.931895 0.136425 -1.301918 0.000000 0.000000 0.000000 -1.888763 1.195975 -61.506379 0.536230 -0.221149 -0.369619 1.135613 0.509669 -1.288511 0.000000 0.000000 0.000000
63.522774 71.649778 319.338182 0.293371 1.357343 61.753130 0.135487 0.070591 -61.738375 -0.020629 0.054135 0.024498 2.057602 0.863945 0.380412 0.000000 0.000000 0.000000 0.557928 0.028954 -0.043340 41.277368 -50.672364 13.483190 14.577480 9.326540 4.786408 4.716734 -6.892597 -14.140761 0.000000 0.000000 0.000000 0.000000 0.000000 0.000000 9.294699 2.097138 -3.323008 -18.423306 1.854952 -12.564729 -5.666695 -5.998147 -5.348420 7.456407 2.805933 7.764203 0.000000 0.000000 0.000000 0.000000 0.000000 0.000000 -1.065826 1.233150 -61.892162 0.195487 -0.634986 0.153661 1.075688 0.101395 -1.312895 0.000000 0.000000 0.000000 -2.087323 1.308498 -61.366796 0.616878 -0.230296 -0.401342 1.203874 0.538002 -1.288391 0.000000 0.000000 0.000000
63.775321 71.687896 319.248396 0.251126 1.449137 61.619449 0.110264 0.063572 -61.605999 -0.015451 0.041852 0.023121 1.882766 0.881745 0.481472 0.000000 0.000000 0.000000 0.748334 0.222624 -0.035457 41.106710 -50.610015 13.979757 12.693872 10.580733 4.368303 6.885667 -8.789646 -13.403070 0.000000 0.000000 0.000000 0.000000 0.000000 0.000000 9.078446 1.997414 -3.219121 -18.541512 1.719842 -12.259347 -5.394585 -5.427469 -6.518411 7.092733 2.811356 7.734011 0.000000 0.000000 0.000000 0.000000 0.000000 0.000000 -1.387564 1.271948 -61.769187 0.182850 -0.418245 0.163682 1.296239 0.062846 -1.274296 0.000000 0.000000 0.000000 -2.177368 1.338146 -61.203387 0.721343 -0.287709 -0.439958 1.191329 0.569250 -1.239542 0.000000 0.000000 0.000000
63.957982 71.715707 319.167021 0.111315 1.517032 61.503366 0.087944 0.072272 -61.494534 -0.009832 0.036650 0.016447 1.726800 0.749576 0.551370 0.000000 0.000000 0.000000 0.908809 -0.081834 0.019727 40.086427 -49.911767 13.342434 12.174181 10.658414 4.239448 6.781601 -8.730404 -13.555759 0.000000 0.000000 0.000000 0.000000 0.000000 0.000000 9.140155 1.927379 -3.164091 -18.743998 1.610336 -12.040959 -4.501120 -4.942282 -6.911652 6.436618 3.040686 6.294620 0.000000 0.000000 0.000000 0.000000 0.000000 0.000000 -1.637276 1.186417 -61.659733 0.218427 -0.158086 0.184016 1.408317 0.006996 -1.225532 0.000000 0.000000 0.000000 -2.154206 1.267495 -61.058880 0.795249 -0.390634 -0.484171 1.148175 0.626853 -1.163799 0.000000 0.000000 0.000000
